<svg id="Icons" xmlns="http://www.w3.org/2000/svg" xmlns:xlink="http://www.w3.org/1999/xlink" viewBox="0 0 215 215"><defs><style>.cls-1{fill:url(#Безымянный_градиент_3);}.cls-2{fill:#fff;fill-rule:evenodd;}</style><radialGradient id="Безымянный_градиент_3" cx="33.33" cy="215.67" r="239.22" gradientUnits="userSpaceOnUse"><stop offset="0" stop-color="#09f"/><stop offset="0.61" stop-color="#a033ff"/><stop offset="0.93" stop-color="#ff5280"/><stop offset="1" stop-color="#ff7061"/></radialGradient></defs><g id="Messenger"><circle id="Background" class="cls-1" cx="107.5" cy="107.5" r="107.5"/><path id="Messenger-2" data-name="Messenger" class="cls-2" d="M1434.22,131.83,1463,86.21a14.69,14.69,0,0,1,21.24-3.91l22.87,17.15a5.88,5.88,0,0,0,7.07,0L1545,76a4.65,4.65,0,0,1,6.74,6.18L1523,127.79a14.69,14.69,0,0,1-21.23,3.92l-22.87-17.16a5.9,5.9,0,0,0-7.08,0L1441,138A4.65,4.65,0,0,1,1434.22,131.83Z" transform="translate(-1385)"/></g></svg>