<svg id="Icons" xmlns="http://www.w3.org/2000/svg" viewBox="0 0 215 215"><defs><style>.cls-1{fill:#fffc00;}.cls-2{fill:#fff;}</style></defs><g id="Snapchat"><circle id="Background" class="cls-1" cx="107.5" cy="107.5" r="107.5"/><g id="Snapchat-2" data-name="Snapchat"><path id="Snapchat-3" data-name="Snapchat" class="cls-2" d="M433,687c-17.4-8.42-20.18-21.43-20.3-22.39a3.07,3.07,0,0,1,1-3.28c1.24-1.15,6.76-4.56,8.29-5.63,2.53-1.77,3.64-3.53,2.82-5.7a3.4,3.4,0,0,0-3.44-2.07,5.93,5.93,0,0,0-1.39.16c-2.77.6-5.47,2-7,2.37a2.7,2.7,0,0,1-.57.08c-.83,0-1.15-.38-1.07-1.38a98.24,98.24,0,0,0,.13-14.5c-.66-7.62-3.11-11.4-6-14.74-1.41-1.61-7.95-8.57-20.59-8.57s-19.17,7-20.57,8.55c-2.92,3.34-5.37,7.12-6,14.74a102.63,102.63,0,0,0,.13,14.5c.06,1-.23,1.38-1.06,1.38a2.8,2.8,0,0,1-.58-.08c-1.56-.38-4.26-1.77-7-2.37a5.79,5.79,0,0,0-1.38-.16,3.4,3.4,0,0,0-3.44,2.07c-.82,2.17.29,3.93,2.82,5.7,1.53,1.07,7,4.48,8.29,5.63a3.07,3.07,0,0,1,1,3.28c-.12,1-2.9,14-20.3,22.39-1,.5-2.75,1.54.31,3.23,4.8,2.65,8,2.37,10.48,4,2.1,1.36.86,4.28,2.39,5.34,1.89,1.3,7.45-.09,14.64,2.28,6,2,9.7,7.6,20.39,7.6s14.46-5.64,20.38-7.6c7.18-2.37,12.76-1,14.65-2.28,1.53-1.06.28-4,2.39-5.34,2.48-1.6,5.68-1.32,10.48-4C435.78,688.58,434.05,687.54,433,687Z" transform="translate(-277 -554)"/><path id="Snapchat-4" data-name="Snapchat" d="M440.6,686.05a7.82,7.82,0,0,0-4-4.2,8.18,8.18,0,0,0-.87-.45l-1.53-.78A33.5,33.5,0,0,1,422,670.1a23.66,23.66,0,0,1-2.11-3.73,1.82,1.82,0,0,1-.06-1.46,2.39,2.39,0,0,1,.68-.7l2.48-1.62c1.13-.73,2-1.31,2.6-1.72a14.24,14.24,0,0,0,4.63-4.93,9.8,9.8,0,0,0,.49-8.15,9.64,9.64,0,0,0-9.33-6.12,12.36,12.36,0,0,0-2.71.29l-.71.16a79.9,79.9,0,0,0-.25-8c-.82-9.44-4.12-14.39-7.56-18.33a30.31,30.31,0,0,0-7.7-6.19,36.69,36.69,0,0,0-35.21,0,30,30,0,0,0-7.71,6.2c-3.44,3.94-6.75,8.9-7.56,18.33-.23,2.68-.29,5.42-.25,8L351,642a13,13,0,0,0-2.71-.29A9.64,9.64,0,0,0,339,647.8a9.82,9.82,0,0,0,.47,8.16,14.34,14.34,0,0,0,4.63,4.93c.58.4,1.48,1,2.61,1.72l2.38,1.56a2.5,2.5,0,0,1,.76.76,1.8,1.8,0,0,1-.08,1.53,23.57,23.57,0,0,1-2.07,3.66,33.51,33.51,0,0,1-11.91,10.33c-2.71,1.44-5.52,2.4-6.71,5.63-.9,2.43-.31,5.21,2,7.54h0a11.12,11.12,0,0,0,2.87,2.18,31.31,31.31,0,0,0,7,2.81,4.54,4.54,0,0,1,1.42.63c.83.73.71,1.82,1.82,3.42a7.91,7.91,0,0,0,2.08,2.12c2.32,1.6,4.92,1.7,7.69,1.81a28.93,28.93,0,0,1,8.55,1.27,21.68,21.68,0,0,1,4.34,2.29c3.86,2.38,9.16,5.63,18,5.63s14.19-3.27,18.09-5.65a21.91,21.91,0,0,1,4.28-2.26,28.89,28.89,0,0,1,8.55-1.27c2.76-.11,5.37-.21,7.69-1.81a7.91,7.91,0,0,0,2.36-2.59c.8-1.35.78-2.29,1.53-3a4.24,4.24,0,0,1,1.33-.61,31.05,31.05,0,0,0,7.12-2.84,11.12,11.12,0,0,0,3-2.36l0,0A7,7,0,0,0,440.6,686.05Zm-7.88,4.23c-4.8,2.66-8,2.37-10.48,4-2.11,1.36-.86,4.29-2.39,5.35-1.88,1.3-7.45-.1-14.64,2.28-5.93,2-9.72,7.6-20.39,7.6s-14.36-5.63-20.39-7.62c-7.18-2.37-12.76-1-14.64-2.28-1.53-1.06-.29-4-2.4-5.34-2.48-1.6-5.68-1.32-10.48-4-3.05-1.68-1.32-2.73-.3-3.22,17.4-8.43,20.17-21.43,20.3-22.4a3.08,3.08,0,0,0-1-3.27c-1.25-1.15-6.76-4.56-8.29-5.63-2.53-1.77-3.65-3.54-2.83-5.71a3.41,3.41,0,0,1,3.45-2.06,6.41,6.41,0,0,1,1.38.15c2.78.6,5.48,2,7,2.37a2.18,2.18,0,0,0,.57.08c.83,0,1.13-.42,1.07-1.37a101.28,101.28,0,0,1-.13-14.51c.66-7.62,3.11-11.39,6-14.73,1.4-1.61,8-8.56,20.57-8.56s19.19,6.93,20.59,8.52c2.92,3.34,5.38,7.12,6,14.74a98.24,98.24,0,0,1-.13,14.5c-.06,1,.24,1.38,1.07,1.38a2.8,2.8,0,0,0,.58-.08c1.56-.38,4.26-1.77,7-2.37a5.79,5.79,0,0,1,1.38-.16A3.4,3.4,0,0,1,424.8,650c.82,2.17-.29,3.93-2.82,5.7-1.53,1.07-7.05,4.48-8.29,5.63a3.07,3.07,0,0,0-1,3.28c.12,1,2.9,14,20.3,22.39C434.05,687.54,435.78,688.58,432.72,690.28Z" transform="translate(-277 -554)"/></g></g></svg>