<svg id="Icons" xmlns="http://www.w3.org/2000/svg" viewBox="0 0 215 215"><defs><style>.cls-1{fill:#25f4ee;}.cls-2{fill:#fe2c55;}.cls-3{fill:#fff;}</style></defs><g id="TikTok"><circle id="Background" cx="107.5" cy="107.5" r="107.5"/><g id="TikTok-2" data-name="TikTok"><g id="TikTok-3" data-name="TikTok"><path class="cls-1" d="M371.3,374.21v-4.53a34.34,34.34,0,0,0-4.75-.41,35.22,35.22,0,0,0-20.19,64.12,35.17,35.17,0,0,1,24.94-59.18Z" transform="translate(-277 -277)"/><path class="cls-1" d="M372.15,425.49a16.11,16.11,0,0,0,16.07-15.4V333.32h14a26.35,26.35,0,0,1-.4-4.86H382.66v76.69a16.1,16.1,0,0,1-16.07,15.51,16.27,16.27,0,0,1-7.42-1.85,16.1,16.1,0,0,0,13,6.68Zm56.28-66.12V355.1a26.2,26.2,0,0,1-14.51-4.38A26.62,26.62,0,0,0,428.43,359.37Z" transform="translate(-277 -277)"/></g><path id="TikTok-4" data-name="TikTok" class="cls-2" d="M413.93,350.73a26.43,26.43,0,0,1-6.57-17.44h-5.12a26.53,26.53,0,0,0,11.69,17.44Zm-47.38,37.73a16.1,16.1,0,0,0-7.42,30.35,16.06,16.06,0,0,1,13-25.49,17,17,0,0,1,4.75.75V374.55a32.82,32.82,0,0,0-4.75-.37h-.85V389a16.22,16.22,0,0,0-4.75-.56Z" transform="translate(-277 -277)"/><path id="TikTok-5" data-name="TikTok" class="cls-2" d="M428.43,359.37v14.84a45.49,45.49,0,0,1-26.6-8.65v39a35.25,35.25,0,0,1-55.47,28.83,35.21,35.21,0,0,0,61-24V370.53A45.64,45.64,0,0,0,434,379.07V360a27.44,27.44,0,0,1-5.57-.59Z" transform="translate(-277 -277)"/><path id="TikTok-6" data-name="TikTok" class="cls-3" d="M401.83,404.56v-39a45.51,45.51,0,0,0,26.64,8.53V359.26a26.64,26.64,0,0,1-14.55-8.53,26.57,26.57,0,0,1-11.68-17.44h-14v76.8a16.1,16.1,0,0,1-29.12,8.79,16.1,16.1,0,0,1,7.42-30.34,16.3,16.3,0,0,1,4.75.74V374.21a35.34,35.34,0,0,0-24.94,59.59,34.93,34.93,0,0,0,20.22,6A35.29,35.29,0,0,0,401.83,404.56Z" transform="translate(-277 -277)"/></g></g></svg>